# xmcd
#
# Track frame offsets: 
#        150
#        17222
#        57438
#        84699
#        106409
#        137673
#        154534
#        174947
#        199038
#        221026
#        240805
#        260476
#        282155
#
# Disc length: 4083 seconds
#
# Revision: 4
# Processed by: cddbd v1.5.2PL0 Copyright (c) Steve Scherf et al.
# Submitted via: ExactAudioCopy v1.3
#
DISCID=ae0ff10d
DTITLE=European Jazz Trio - Best Of Standards [Disc 2]
DYEAR=2009
DGENRE=Jazz
TTITLE0=It Could Happen To You
TTITLE1=Angel Eyes
TTITLE2=Golden Earrings
TTITLE3=Django
TTITLE4=La Vie En Rose
TTITLE5=The Shadow Of Your Smile
TTITLE6=The Old Country
TTITLE7=Lament
TTITLE8=Love Is A Many Splendored Thing
TTITLE9=Kiss Of Fire
TTITLE10=Summertime
TTITLE11=Besame Mucho
TTITLE12=When You Wish Upon A Star
EXTD=YEAR: 2008
EXTT0=
EXTT1=
EXTT2=
EXTT3=
EXTT4=
EXTT5=
EXTT6=
EXTT7=
EXTT8=
EXTT9=
EXTT10=
EXTT11=
EXTT12=
PLAYORDER=
